# xmcd
# 
# Track frame offsets:
#     150
#     15556
#     33423
#     46832
#     56390
#     75209
#     95863
#     111635
#     125579
# 
# Disc length: 1921
# 
# Revision: 0
# Processed by: cddbd v1.5.2PL0 Copyright (c) Steve Scherf et al.
# Submitted via: BonkEnc v1.0.0
# 
DISCID=6d077f09
DTITLE=Alvin Madison - Street Serenade
DYEAR=2012
DGENRE=Blues
TTITLE0=If God Was One Of Us
TTITLE1=Imagine
TTITLE2=Iris
TTITLE3=Marrianne
TTITLE4=Mary
TTITLE5=The Scientist
TTITLE6=Times Like These
TTITLE7=Wonderwall
TTITLE8=You Found Me 
EXTD=
EXTT0=
EXTT1=
EXTT2=
EXTT3=
EXTT4=
EXTT5=
EXTT6=
EXTT7=
EXTT8=
PLAYORDER=
